<svg width="40" height="40" viewBox="0 0 40 40" fill="none" xmlns="http://www.w3.org/2000/svg">
<path d="M16.6668 21.6667C21.2692 21.6667 25.0002 17.9357 25.0002 13.3333C25.0002 8.73096 21.2692 5 16.6668 5C12.0645 5 8.3335 8.73096 8.3335 13.3333C8.3335 17.9357 12.0645 21.6667 16.6668 21.6667Z" fill="#FE8521"/>
<path d="M31.667 16.6667V26.6667V16.6667ZM36.667 21.6667H26.667H36.667Z" fill="#FE8521"/>
<path d="M31.667 16.6667V26.6667M36.667 21.6667H26.667" stroke="#FE8521" stroke-width="1.66667" stroke-linecap="round"/>
<path d="M28.5702 33.9717C29.3402 33.7967 29.8019 32.9967 29.4602 32.285C28.5402 30.3683 27.0286 28.6817 25.0702 27.4117C22.6586 25.8483 19.7052 25 16.6669 25C13.6286 25 10.6752 25.8467 8.26356 27.4117C6.30523 28.6817 4.79356 30.3667 3.87356 32.285C3.5319 32.9967 3.99356 33.7967 4.76356 33.9717C12.5997 35.7483 20.7341 35.7483 28.5702 33.9717Z" fill="#FE8521"/>
</svg>
