<svg width="22" height="22" viewBox="0 0 22 22" fill="none" xmlns="http://www.w3.org/2000/svg">
<path d="M4.23258 7.21801C4.23257 7.21799 4.23256 7.21798 4.23254 7.21797C4.08174 7.07068 3.87931 6.98822 3.66851 6.98822C3.4577 6.98822 3.25525 7.07069 3.10444 7.21801L3.10444 7.21801L3.10429 7.21816C3.03058 7.29038 2.97202 7.37658 2.93205 7.47171C2.89207 7.56684 2.87148 7.66899 2.87148 7.77218C2.87148 7.87537 2.89207 7.97752 2.93205 8.07265C2.97202 8.16778 3.03058 8.25398 3.10428 8.3262L3.10455 8.32646L10.4154 15.4545L10.4154 15.4545C10.5718 15.6069 10.7816 15.6922 11 15.6922C11.2184 15.6922 11.4282 15.6069 11.5846 15.4545L11.4799 15.3471L11.5846 15.4545L18.8954 8.3279C18.8954 8.32788 18.8954 8.32786 18.8955 8.32784C18.9697 8.25558 19.0286 8.16919 19.0689 8.07378C19.1092 7.97833 19.1299 7.87578 19.1299 7.77218C19.1299 7.66858 19.1092 7.56603 19.0689 7.47058C19.0286 7.37514 18.9696 7.28873 18.8954 7.21646L18.7908 7.32393L18.8956 7.21663C18.7448 7.06931 18.5423 6.98684 18.3315 6.98684C18.1207 6.98684 17.9182 7.06932 17.7674 7.21663L17.7223 7.26077V7.26205L11 13.8148L4.23258 7.21801Z" fill="#111111" stroke="black" stroke-width="0.3"/>
</svg>
