<svg width="41" height="40" viewBox="0 0 41 40" fill="none" xmlns="http://www.w3.org/2000/svg">
<path fill-rule="evenodd" clip-rule="evenodd" d="M38.292 0H2.708C1.488 0 0.5 0.988 0.5 2.208V37.792C0.5 39.012 1.488 40 2.708 40H21.864V24.51H16.652V18.474H21.864V14.02C21.864 8.852 25.02 6.04 29.63 6.04C31.838 6.04 33.734 6.204 34.288 6.278V11.678H31.092C28.584 11.678 28.1 12.87 28.1 14.618V18.472H34.078L33.298 24.508H28.098V40H38.292C39.512 40 40.5 39.012 40.5 37.792V2.208C40.5 0.988 39.512 0 38.292 0Z" fill="#111111"/>
</svg>
