<svg width="27" height="30" viewBox="0 0 27 30" fill="none" xmlns="http://www.w3.org/2000/svg">
<path d="M16.6685 15V28.1333C16.7352 28.6333 16.5685 29.1667 16.1852 29.5167C16.031 29.6712 15.8478 29.7937 15.6462 29.8774C15.4446 29.961 15.2285 30.0041 15.0102 30.0041C14.7919 30.0041 14.5758 29.961 14.3741 29.8774C14.1725 29.7937 13.9894 29.6712 13.8352 29.5167L10.4852 26.1667C10.3035 25.9889 10.1654 25.7716 10.0815 25.5316C9.99769 25.2916 9.97042 25.0356 10.0018 24.7833V15H9.95185L0.351846 2.7C0.0811931 2.35255 -0.040931 1.9121 0.0121593 1.47488C0.0652495 1.03767 0.289238 0.639244 0.63518 0.366667C0.951846 0.133333 1.30185 0 1.66851 0H25.0018C25.3685 0 25.7185 0.133333 26.0352 0.366667C26.3811 0.639244 26.6051 1.03767 26.6582 1.47488C26.7113 1.9121 26.5892 2.35255 26.3185 2.7L16.7185 15H16.6685Z" fill="white"/>
</svg>
