<svg width="43" height="42" viewBox="0 0 43 42" fill="none" xmlns="http://www.w3.org/2000/svg">
<path d="M23.6417 0.166626C25.9855 0.172876 27.175 0.185376 28.2021 0.214543L28.6063 0.229126C29.073 0.245793 29.5334 0.266626 30.0896 0.291626C32.3063 0.395793 33.8188 0.745793 35.1459 1.26038C36.5209 1.78954 37.6792 2.50621 38.8375 3.66246C39.8973 4.70357 40.7171 5.96344 41.2396 7.35413C41.7542 8.68121 42.1042 10.1937 42.2084 12.4125C42.2334 12.9666 42.2542 13.427 42.2709 13.8958L42.2834 14.3C42.3146 15.325 42.3271 16.5145 42.3313 18.8583L42.3334 20.4125V23.1416C42.3385 24.6612 42.3225 26.1808 42.2855 27.7L42.273 28.1041C42.2563 28.5729 42.2355 29.0333 42.2105 29.5875C42.1063 31.8062 41.7521 33.3166 41.2396 34.6458C40.7171 36.0365 39.8973 37.2963 38.8375 38.3375C37.7964 39.3972 36.5366 40.217 35.1459 40.7395C33.8188 41.2541 32.3063 41.6041 30.0896 41.7083L28.6063 41.7708L28.2021 41.7833C27.175 41.8125 25.9855 41.827 23.6417 41.8312L22.0875 41.8333H19.3605C17.8402 41.8387 16.3199 41.8227 14.8 41.7854L14.3959 41.7729C13.9013 41.7541 13.4069 41.7326 12.9125 41.7083C10.6959 41.6041 9.18338 41.2541 7.85421 40.7395C6.46428 40.2167 5.20513 39.397 4.16463 38.3375C3.1041 37.2966 2.28361 36.0367 1.76046 34.6458C1.24588 33.3187 0.895879 31.8062 0.791712 29.5875L0.729212 28.1041L0.718796 27.7C0.680392 26.1808 0.663029 24.6612 0.666712 23.1416V18.8583C0.660946 17.3387 0.676225 15.8191 0.712546 14.3L0.727129 13.8958C0.743796 13.427 0.764629 12.9666 0.789629 12.4125C0.893796 10.1937 1.2438 8.68329 1.75838 7.35413C2.28274 5.96287 3.10468 4.70295 4.16671 3.66246C5.20662 2.60319 6.46502 1.78345 7.85421 1.26038C9.18338 0.745793 10.6938 0.395793 12.9125 0.291626C13.4667 0.266626 13.9292 0.245793 14.3959 0.229126L14.8 0.216626C16.3192 0.179611 17.8388 0.163637 19.3584 0.168709L23.6417 0.166626ZM21.5 10.5833C18.7374 10.5833 16.0879 11.6808 14.1344 13.6343C12.1808 15.5878 11.0834 18.2373 11.0834 21C11.0834 23.7626 12.1808 26.4121 14.1344 28.3657C16.0879 30.3192 18.7374 31.4166 21.5 31.4166C24.2627 31.4166 26.9122 30.3192 28.8657 28.3657C30.8192 26.4121 31.9167 23.7626 31.9167 21C31.9167 18.2373 30.8192 15.5878 28.8657 13.6343C26.9122 11.6808 24.2627 10.5833 21.5 10.5833ZM21.5 14.75C22.3208 14.7498 23.1336 14.9113 23.8919 15.2253C24.6502 15.5393 25.3393 15.9995 25.9198 16.5798C26.5002 17.1601 26.9607 17.849 27.2749 18.6072C27.5892 19.3655 27.751 20.1782 27.7511 20.9989C27.7512 21.8197 27.5897 22.6324 27.2757 23.3908C26.9618 24.1491 26.5015 24.8382 25.9212 25.4186C25.341 25.9991 24.6521 26.4596 23.8938 26.7738C23.1356 27.088 22.3229 27.2498 21.5021 27.25C19.8445 27.25 18.2548 26.5915 17.0827 25.4194C15.9106 24.2473 15.2521 22.6576 15.2521 21C15.2521 19.3424 15.9106 17.7526 17.0827 16.5805C18.2548 15.4084 19.8445 14.75 21.5021 14.75M32.4396 7.45829C31.749 7.45829 31.0866 7.73266 30.5982 8.22104C30.1098 8.70941 29.8355 9.37179 29.8355 10.0625C29.8355 10.7531 30.1098 11.4155 30.5982 11.9039C31.0866 12.3923 31.749 12.6666 32.4396 12.6666C33.1303 12.6666 33.7927 12.3923 34.2811 11.9039C34.7694 11.4155 35.0438 10.7531 35.0438 10.0625C35.0438 9.37179 34.7694 8.70941 34.2811 8.22104C33.7927 7.73266 33.1303 7.45829 32.4396 7.45829Z" fill="#111111"/>
</svg>
