<svg width="43" height="42" viewBox="0 0 43 42" fill="none" xmlns="http://www.w3.org/2000/svg">
<path d="M21.4998 0.166626C9.99984 0.166626 0.666504 9.49996 0.666504 21C0.666504 32.5 9.99984 41.8333 21.4998 41.8333C32.9998 41.8333 42.3332 32.5 42.3332 21C42.3332 9.49996 32.9998 0.166626 21.4998 0.166626ZM31.1665 14.3333C30.854 17.625 29.4998 25.625 28.8123 29.3125C28.5207 30.875 27.9373 31.3958 27.3957 31.4583C26.1873 31.5625 25.2707 30.6666 24.104 29.8958C22.2707 28.6875 21.229 27.9375 19.4582 26.7708C17.3957 25.4166 18.729 24.6666 19.9165 23.4583C20.229 23.1458 25.5623 18.2916 25.6665 17.8541C25.681 17.7879 25.679 17.7191 25.6609 17.6537C25.6427 17.5884 25.6089 17.5284 25.5623 17.4791C25.4373 17.375 25.2707 17.4166 25.1248 17.4375C24.9373 17.4791 22.0207 19.4166 16.3332 23.25C15.4998 23.8125 14.7498 24.1041 14.0832 24.0833C13.3332 24.0625 11.9165 23.6666 10.854 23.3125C9.5415 22.8958 8.52067 22.6666 8.604 21.9375C8.64567 21.5625 9.1665 21.1875 10.1457 20.7916C16.229 18.1458 20.2707 16.3958 22.2915 15.5625C28.0832 13.1458 29.2707 12.7291 30.0623 12.7291C30.229 12.7291 30.6248 12.7708 30.8748 12.9791C31.0832 13.1458 31.1457 13.375 31.1665 13.5416C31.1457 13.6666 31.1873 14.0416 31.1665 14.3333Z" fill="#111111"/>
</svg>
